<mxfile host="app.diagrams.net" modified="2023-06-17T13:25:03.982Z" agent="Mozilla/5.0 (Windows NT 10.0; Win64; x64) AppleWebKit/537.36 (KHTML, like Gecko) Chrome/114.0.0.0 Safari/537.36" version="21.4.0" etag="kJAD1R9bwxbXS2cLZJhR" type="github">
  <diagram name="Page-1" id="vXzYz_sZ3whbnKZOxh5h">
    <mxGraphModel>
      <root>
        <mxCell id="0" />
        <mxCell id="1" parent="0" />
      </root>
    </mxGraphModel>
  </diagram>
</mxfile>
